<?xml version="1.0" standalone="no"?>
<!DOCTYPE svg PUBLIC "-//W3C//DTD SVG 20010904//EN"
 "http://www.w3.org/TR/2001/REC-SVG-20010904/DTD/svg10.dtd">
<svg version="1.0" xmlns="http://www.w3.org/2000/svg"
 width="512.000000pt" height="512.000000pt" viewBox="0 0 512.000000 512.000000"
 preserveAspectRatio="xMidYMid meet">
<metadata>
Created by potrace 1.14, written by Peter Selinger 2001-2017
</metadata>
<g transform="translate(0.000000,512.000000) scale(0.100000,-0.100000)"
fill="#000000" stroke="none">
<path d="M0 2560 l0 -2560 2560 0 2560 0 0 2560 0 2560 -2560 0 -2560 0 0
-2560z m677 2258 c-83 -185 -106 -287 -88 -388 15 -80 48 -138 104 -184 179
-147 559 -182 1086 -100 90 14 165 24 167 22 2 -2 -3 -154 -11 -338 -8 -184
-15 -341 -15 -349 0 -28 -459 1 -705 44 -381 67 -692 208 -848 386 -60 68
-114 175 -129 257 -37 202 98 435 355 611 74 51 93 60 84 39z m3933 -72 c68
-49 167 -148 209 -210 216 -313 92 -631 -326 -840 -112 -56 -205 -89 -368
-131 -215 -55 -544 -95 -787 -95 l-97 0 -5 33 c-7 48 -28 658 -23 663 3 3 78
-6 168 -20 539 -85 937 -42 1098 116 75 74 86 106 86 238 -1 118 -7 143 -80
314 -8 18 -5 18 31 -4 21 -13 64 -42 94 -64z m-2706 -1871 c97 -49 164 -146
192 -274 22 -105 21 -107 -36 -121 -68 -16 -176 -17 -232 -1 -57 16 -119 67
-153 126 -29 49 -55 157 -55 232 0 50 1 53 33 62 17 6 68 9 112 8 66 -2 90 -7
139 -32z m1618 17 c18 -18 11 -148 -13 -224 -48 -153 -167 -220 -350 -197
-108 13 -109 14 -109 62 0 53 31 155 64 211 34 59 107 121 170 146 41 16 69
19 139 17 49 -2 92 -8 99 -15z m-565 -1675 c172 -179 198 -452 62 -655 -101
-152 -255 -235 -439 -235 -156 -1 -278 51 -383 162 -160 170 -193 411 -85 614
32 59 125 167 143 167 6 -1 34 -33 62 -72 l53 -71 -38 -41 c-67 -73 -87 -127
-87 -236 0 -99 12 -137 68 -212 56 -76 202 -136 300 -125 115 14 225 94 273
200 23 51 28 76 29 142 0 96 -29 169 -95 235 -23 23 -40 45 -38 49 10 26 95
140 104 141 6 0 38 -28 71 -63z"/>
</g>
</svg>
